PathFileType	4	(X/Y/Z)	s10c0102.trc
DataRate	CameraRate	NumFrames	NumMarkers	Units	OrigDataRate	OrigDataStartFrame	OrigNumFrames
200	200	5	50	mm	200	1500	2000
Frame#	Time	racr			lacr			c7			jug			rlel			rdr			llel			ldr			s2			lic			ric			lasi			rasi			rpsi			lpsi			rgt			lgt			rth1			rth2			rth3			rth4			rlfc			rmfc			rsh1			rsh2			rsh3			rsh4			rlmal			rmmal			rcal			rtoe			rmt5			lth1			lth2			lth4			lth3			llfc			lmfc			llmal			lmmal			lcal			lmt5			lsh1			lsh2			lsh3			lsh4			ltoe			SBIKE			LBIKE			RBIKE			
		X1	Y1	Z1	X2	Y2	Z2	X3	Y3	Z3	X4	Y4	Z4	X5	Y5	Z5	X6	Y6	Z6	X7	Y7	Z7	X8	Y8	Z8	X9	Y9	Z9	X10	Y10	Z10	X11	Y11	Z11	X12	Y12	Z12	X13	Y13	Z13	X14	Y14	Z14	X15	Y15	Z15	X16	Y16	Z16	X17	Y17	Z17	X18	Y18	Z18	X19	Y19	Z19	X20	Y20	Z20	X21	Y21	Z21	X22	Y22	Z22	X23	Y23	Z23	X24	Y24	Z24	X25	Y25	Z25	X26	Y26	Z26	X27	Y27	Z27	X28	Y28	Z28	X29	Y29	Z29	X30	Y30	Z30	X31	Y31	Z31	X32	Y32	Z32	X33	Y33	Z33	X34	Y34	Z34	X35	Y35	Z35	X36	Y36	Z36	X37	Y37	Z37	X38	Y38	Z38	X39	Y39	Z39	X40	Y40	Z40	X41	Y41	Z41	X42	Y42	Z42	X43	Y43	Z43	X44	Y44	Z44	X45	Y45	Z45	X46	Y46	Z46	X47	Y47	Z47	X48	Y48	Z48	X49	Y49	Z49	X50	Y50	Z50	
1500	7.5000	446.994906	1282.003893	-89.550122	412.483121	1269.392060	-398.821277	388.472612	1321.456495	-235.379654	383.046417	1175.982238	-230.869722	496.831477	1036.661295	18.497819	641.745413	874.012522	-48.797687	458.788135	1009.823465	-496.848018	632.632463	887.547937	-413.864427	-117.055422	1091.296129	-203.690921	40.412275	1138.423856	-359.692089	69.556081	1109.143747	-58.507282	71.850555	1051.437066	-322.518742	69.266297	1022.505950	-77.744692	-78.144202	1145.832502	-138.936016	-77.386909	1160.347015	-251.991336	-48.078650	983.247455	-23.226953	-25.383886	1020.523221	-415.147692	11.778814	852.067264	-1.302554	70.271377	785.393279	-10.634114	85.454250	701.932648	-23.301008	103.691869	803.212700	-13.700720	139.481399	609.892750	-36.740203	136.928760	603.974074	-153.344144	71.380624	514.735590	-17.514150	71.596430	426.881494	-31.835398	28.781919	352.674394	-44.709355	104.868999	421.789780	-50.041059	4.760643	253.570253	-63.349970	33.887533	263.044415	-140.405184	-45.863087	244.963257	-112.229116	184.048827	168.585478	-98.579876	95.655116	161.395158	-39.752347	100.010993	990.014380	-413.510235	180.760189	1006.875243	-386.028003	178.923866	1037.912371	-365.494060	265.773944	982.706946	-382.649615	371.476438	971.758951	-351.652274	371.098998	950.988220	-223.514337	190.839992	631.509763	-373.828217	208.566469	619.865501	-295.696370	132.496159	622.349255	-331.736111	237.907222	480.842376	-398.393393	309.123404	872.221300	-384.358562	294.276536	786.879804	-378.464203	236.661709	718.907501	-381.250783	322.752807	774.013911	-357.056187	319.053775	448.392354	-346.560536	-218.299119	833.348078	-213.709217	-104.006701	80.606540	-418.307593	-104.037590	80.463946	-18.297059	
1501	7.5050	448.161382	1281.787504	-91.054507	411.883917	1269.243724	-400.384370	389.139271	1321.159611	-236.355395	383.440072	1175.691048	-231.664650	497.571664	1037.062705	17.850121	641.768226	873.987521	-48.848489	458.086171	1009.167713	-497.487119	632.616088	887.466130	-413.793000	-116.995020	1092.949584	-204.698667	40.714717	1140.449159	-358.124429	70.068065	1109.645538	-58.714748	70.934565	1052.439086	-322.342008	68.981941	1023.468634	-77.538309	-77.429559	1147.055562	-139.351931	-77.132318	1162.512027	-252.583727	-48.940482	985.162829	-23.353602	-24.862167	1022.050573	-416.292958	11.430762	852.910873	-1.405853	70.857377	786.963426	-10.317350	87.526811	703.902188	-23.126941	104.116209	805.679985	-12.708667	142.040517	612.929052	-35.499514	141.408546	605.101207	-151.944189	71.947047	519.156727	-16.776519	69.982820	431.349326	-31.466447	25.416604	358.330730	-44.613888	103.209488	425.534613	-49.528579	-1.719808	260.075546	-63.632774	28.432281	268.924932	-140.436602	-52.487978	252.836959	-112.710876	175.438769	170.388284	-98.435165	86.759128	165.720932	-39.932810	99.806418	990.894506	-413.802435	180.771688	1005.785004	-385.823401	179.572108	1036.926362	-365.431234	265.158831	979.608251	-382.630660	369.617818	968.085203	-352.482637	368.232223	948.252621	-224.138124	194.065538	625.582953	-373.806182	212.278803	614.925401	-296.194396	135.919159	614.867311	-332.148104	246.375733	477.416550	-399.215357	306.296339	869.510286	-382.456687	293.930541	783.740641	-378.426091	238.053989	714.243711	-381.203023	323.155370	771.103495	-357.820253	328.950509	448.110305	-346.795827	-218.348804	833.339567	-213.815149	-103.948463	80.828896	-418.619681	-104.027446	80.426004	-18.314287	
1502	7.5100	449.204340	1281.504757	-92.465696	411.394831	1269.154770	-401.618555	389.724268	1320.918327	-237.234818	383.738209	1175.453152	-232.475793	498.217137	1037.392285	17.146285	641.720031	873.984115	-48.922598	457.578513	1008.727899	-497.874468	632.563492	887.363208	-413.778818	-117.052424	1094.719693	-205.487336	40.765143	1142.212310	-356.344786	70.497988	1110.157190	-59.008290	69.839420	1052.955998	-321.776077	68.764376	1024.376847	-77.320999	-77.039427	1148.454091	-139.751032	-77.055379	1164.460830	-252.949506	-49.811365	986.894414	-23.562183	-24.487709	1023.150680	-417.087881	11.274162	853.850459	-1.772116	72.001855	789.014527	-10.351309	90.331806	706.154974	-22.880946	104.874575	808.179392	-12.060757	145.452218	616.329708	-34.403171	147.005153	607.220375	-150.729299	73.560776	523.869903	-16.101644	69.206395	436.299218	-31.125227	22.667427	364.558281	-44.434924	102.367327	429.457255	-49.215742	-7.714533	267.359860	-63.823280	22.959444	275.284069	-140.570841	-58.503547	261.340656	-113.054807	167.147726	172.692822	-98.298271	78.152155	170.846786	-39.962080	99.172343	990.905170	-413.827418	180.502170	1003.694874	-385.817169	179.890968	1035.001078	-365.544899	264.121632	975.457167	-382.754377	367.879005	963.039394	-353.543779	365.552942	944.678073	-224.924009	197.387570	619.553222	-374.645119	215.646397	609.016147	-296.899218	139.124481	606.027795	-333.191469	254.698850	473.372567	-399.772257	303.639209	865.381684	-380.764178	293.417088	779.136211	-378.776173	238.904389	708.632533	-381.485725	323.246740	766.742648	-358.853665	338.506945	447.624869	-347.445257	-218.377790	833.333877	-213.819396	-104.046310	80.224953	-417.892405	-104.070001	80.470004	-18.304353	
1503	7.5150	450.057210	1281.187007	-93.866883	410.932924	1269.081408	-402.629451	390.311359	1320.578259	-238.045726	384.023183	1175.118646	-233.186963	498.882296	1037.795732	16.486119	641.711974	874.001570	-48.942395	457.149417	1008.453191	-498.123654	632.512451	887.299512	-413.868259	-117.098665	1096.240057	-206.311661	40.740944	1143.887085	-354.836573	70.896715	1110.618753	-59.898699	69.050116	1053.427306	-322.011158	68.441910	1025.367197	-77.128546	-76.680989	1149.771828	-140.494108	-77.046355	1166.260561	-252.973009	-50.505083	988.678206	-23.802592	-24.332049	1023.931512	-417.415448	11.508881	854.837452	-2.124515	73.746795	791.496542	-10.306133	93.693332	708.726451	-22.587272	106.067828	810.995179	-11.635640	149.612296	619.949160	-33.545022	153.738101	609.970218	-149.397809	75.968980	528.901374	-15.506020	69.010985	441.634335	-30.861659	20.449465	371.249406	-44.281354	101.961795	433.905837	-49.078286	-13.095887	275.512008	-63.730166	18.049483	282.255553	-140.701192	-64.113560	270.494450	-113.312360	158.950954	175.356725	-98.343963	69.905986	176.408215	-40.104000	98.081175	989.821758	-413.586460	179.888623	1000.968989	-386.048848	180.125009	1032.289932	-366.078407	262.695763	970.482677	-383.222386	365.287518	956.447009	-355.443705	362.900681	939.676481	-225.781979	199.201558	611.787965	-375.442195	219.225795	602.289616	-297.628470	141.352702	596.659777	-334.876761	262.632601	468.863192	-400.523062	301.166579	860.183322	-379.751667	292.735881	773.173548	-379.715461	239.357622	701.699193	-381.969197	323.192612	760.878158	-360.173091	347.414387	446.810071	-347.642772	-218.415723	833.295239	-213.956528	-104.027202	80.536615	-418.359227	-104.061900	80.483721	-18.314043	
1504	7.5200	450.740477	1280.900184	-95.332223	410.522195	1268.989941	-403.380540	390.748610	1320.214188	-238.686596	384.373956	1174.748383	-233.817034	499.399302	1038.067942	15.822550	641.745147	874.029265	-49.063902	456.683524	1008.284552	-498.356949	632.449613	887.282037	-414.068691	-116.949643	1098.108698	-206.587567	40.564134	1145.349580	-353.522658	73.457696	1111.693117	-58.918351	68.247057	1053.811384	-322.308230	68.019270	1026.340967	-77.123748	-76.333133	1151.239843	-141.312024	-77.072823	1168.003142	-253.042148	-51.232120	990.437365	-23.859551	-24.417970	1024.309793	-417.303571	12.163342	855.944233	-2.328925	75.827286	794.005089	-9.955057	97.520286	711.695162	-22.249602	107.652505	814.017205	-11.404635	154.389109	623.668942	-32.904533	160.115045	613.570104	-148.667519	79.042303	534.082395	-14.944693	69.462521	447.115991	-30.667796	18.629974	378.324635	-44.202406	101.992457	438.535221	-49.188572	-18.078743	283.720988	-64.013515	13.636808	289.647687	-140.784515	-69.281024	280.165877	-113.562347	150.984161	178.526560	-98.391281	62.083657	182.596052	-40.171669	96.635924	987.981913	-413.392213	178.964619	997.283856	-386.558888	180.017630	1028.769500	-366.832624	261.005634	964.916634	-383.962464	364.465358	949.212164	-356.216188	360.365285	933.188484	-227.286725	199.772180	602.280424	-374.908040	220.560162	593.387378	-299.073777	143.551361	584.795486	-334.400834	270.209171	463.248208	-400.910295	299.133662	852.626060	-378.976754	292.032553	765.604903	-380.818353	239.507629	693.650612	-382.590889	322.899466	753.688487	-361.682499	355.870351	445.538354	-347.824099	-218.414079	833.330875	-213.940016	-104.074788	80.450396	-418.227600	-104.047645	80.492134	-18.317193	
